<svg viewBox="0 0 120 120" xmlns="http://www.w3.org/2000/svg" fill="none">
  <circle cx="60" cy="60" r="58" fill="#0F0F0F"></circle>
  <circle cx="60" cy="60" r="58" stroke="#F5A800" stroke-width="2"></circle>
  <path d="M40 78 L40 42 Q40 36 46 36 L62 36 Q72 36 72 46 Q72 53 66 56 Q74 58 74 68 Q74 78 62 78 Z" fill="#F0EAD6"></path>
  <path d="M48 44 L60 44 Q64 44 64 48 Q64 52 60 52 L48 52 Z" fill="#0F0F0F"></path>
  <path d="M48 60 L62 60 Q66 60 66 65 Q66 70 62 70 L48 70 Z" fill="#0F0F0F"></path>
  <path d="M82 38 Q86 32 90 38 Q92 42 88 46 Q92 48 90 54 Q86 58 82 52" stroke="#9DAE8A" stroke-width="2.5" stroke-linecap="round"></path>
  <circle cx="86" cy="44" r="1.5" fill="#9DAE8A"></circle>
</svg>