<svg viewBox="0 0 200 160" xmlns="http://www.w3.org/2000/svg">
  <g fill="none" stroke="#6F8466" stroke-width="1.5" stroke-linecap="round">
    <path d="M40 140 Q50 100 70 80 Q90 60 110 50"></path>
    <path d="M70 80 Q60 70 55 55 Q70 60 75 75" fill="#9DAE8A" stroke="#6F8466"></path>
    <path d="M85 65 Q80 50 85 38 Q95 50 95 62" fill="#9DAE8A" stroke="#6F8466"></path>
    <path d="M100 55 Q105 35 120 28 Q120 50 110 60" fill="#9DAE8A" stroke="#6F8466"></path>
    <path d="M120 50 Q140 45 155 35"></path>
    <path d="M140 45 Q145 30 155 22 Q160 38 150 48" fill="#D87C5A" stroke="#A85B3D"></path>
    <path d="M155 35 Q170 30 180 22 Q175 42 162 45" fill="#F5A800" stroke="#C98800"></path>
  </g>
  <circle cx="172" cy="28" r="3" fill="#D87C5A"></circle>
  <circle cx="60" cy="118" r="2" fill="#F5A800"></circle>
</svg>